<svg xmlns="http://www.w3.org/2000/svg" xmlns:xlink="http://www.w3.org/1999/xlink" width="500" zoomAndPan="magnify" viewBox="0 0 375 374.999991" height="500" preserveAspectRatio="xMidYMid meet" version="1.0"><defs><clipPath id="54158578c1"><path d="M 10.480469 266 L 184 266 L 184 314.160156 L 10.480469 314.160156 Z M 10.480469 266 " clip-rule="nonzero"/></clipPath></defs><path fill="#fd5e53" d="M 87.941406 100.59375 C 85.851562 104.25 87.019531 108.863281 90.523438 111.113281 L 67.882812 150.722656 C 64.171875 148.855469 59.601562 150.1875 57.511719 153.84375 C 55.351562 157.617188 56.664062 162.429688 60.441406 164.585938 L 130.96875 204.878906 C 134.742188 207.039062 139.554688 205.722656 141.714844 201.949219 C 143.871094 198.171875 142.558594 193.363281 138.78125 191.207031 L 138.417969 191 L 161.035156 151.421875 L 161.398438 151.625 C 165.171875 153.785156 169.984375 152.472656 172.144531 148.695312 C 174.300781 144.921875 172.988281 140.109375 169.210938 137.953125 L 98.679688 97.664062 C 94.90625 95.507812 90.09375 96.816406 87.941406 100.59375 Z M 87.941406 100.59375 " fill-opacity="1" fill-rule="nonzero"/><path fill="#fd5e53" d="M 87.941406 100.59375 C 85.851562 104.25 87.019531 108.863281 90.523438 111.113281 L 67.882812 150.722656 C 64.171875 148.855469 59.601562 150.1875 57.511719 153.84375 C 55.351562 157.617188 56.664062 162.429688 60.441406 164.585938 L 130.96875 204.878906 C 134.742188 207.039062 139.554688 205.722656 141.714844 201.949219 C 143.871094 198.171875 142.558594 193.363281 138.78125 191.207031 L 138.417969 191 L 161.035156 151.421875 L 161.398438 151.625 C 165.171875 153.785156 169.984375 152.472656 172.144531 148.695312 C 174.300781 144.921875 172.988281 140.109375 169.210938 137.953125 L 98.679688 97.664062 C 94.90625 95.507812 90.09375 96.816406 87.941406 100.59375 Z M 87.941406 100.59375 " fill-opacity="1" fill-rule="nonzero"/><path fill="#fd5e53" d="M 168.878906 169.433594 L 157.644531 189.097656 C 157.804688 189.617188 157.941406 190.144531 158.070312 190.675781 L 325.164062 297.695312 C 325.773438 298.085938 326.4375 298.464844 327.09375 298.796875 C 337.929688 304.28125 351.160156 299.945312 356.644531 289.105469 C 362.128906 278.269531 357.792969 265.039062 346.953125 259.554688 Z M 168.878906 169.433594 " fill-opacity="1" fill-rule="nonzero"/><path fill="#fd5e53" d="M 87.941406 100.59375 C 85.851562 104.25 87.019531 108.863281 90.523438 111.113281 L 67.882812 150.722656 C 64.171875 148.855469 59.601562 150.1875 57.511719 153.84375 C 55.351562 157.617188 56.664062 162.429688 60.441406 164.585938 L 130.96875 204.878906 C 134.742188 207.039062 139.554688 205.722656 141.714844 201.949219 C 143.871094 198.171875 142.558594 193.363281 138.78125 191.207031 L 138.417969 191 L 161.035156 151.421875 L 161.398438 151.625 C 165.171875 153.785156 169.984375 152.472656 172.144531 148.695312 C 174.300781 144.921875 172.988281 140.109375 169.210938 137.953125 L 98.679688 97.664062 C 94.90625 95.507812 90.09375 96.816406 87.941406 100.59375 Z M 87.941406 100.59375 " fill-opacity="1" fill-rule="nonzero"/><path fill="#fd5e53" d="M 118.222656 245.21875 C 115.261719 245.683594 112.132812 245.1875 109.324219 243.582031 L 40.242188 204.109375 C 33.683594 200.363281 31.40625 192.011719 35.152344 185.453125 C 38.898438 178.898438 47.25 176.621094 53.808594 180.367188 L 122.894531 219.835938 C 129.449219 223.582031 131.730469 231.933594 127.984375 238.492188 C 125.839844 242.246094 122.1875 244.597656 118.222656 245.21875 Z M 118.222656 245.21875 " fill-opacity="1" fill-rule="nonzero"/><path fill="#fd5e53" d="M 185.816406 127.773438 C 182.855469 128.238281 179.722656 127.738281 176.917969 126.136719 L 107.828125 86.664062 C 101.269531 82.917969 98.992188 74.566406 102.738281 68.007812 C 106.484375 61.453125 114.839844 59.171875 121.394531 62.917969 L 190.480469 102.390625 C 197.039062 106.136719 199.316406 114.488281 195.570312 121.046875 C 193.429688 124.800781 189.777344 127.148438 185.816406 127.773438 Z M 185.816406 127.773438 " fill-opacity="1" fill-rule="nonzero"/><g clip-path="url(#54158578c1)"><path fill="#fd5e53" d="M 176.335938 299.242188 L 173.847656 299.242188 L 173.847656 276.3125 C 173.847656 271.121094 169.644531 266.917969 164.453125 266.917969 L 28.25 266.917969 C 23.058594 266.917969 18.855469 271.121094 18.855469 276.3125 L 18.855469 299.242188 L 18.027344 299.242188 C 13.90625 299.242188 10.566406 302.582031 10.566406 306.703125 C 10.566406 310.820312 13.90625 314.160156 18.027344 314.160156 L 176.335938 314.160156 C 180.453125 314.160156 183.792969 310.820312 183.792969 306.703125 C 183.792969 302.582031 180.453125 299.242188 176.335938 299.242188 Z M 176.335938 299.242188 " fill-opacity="1" fill-rule="nonzero"/></g></svg>