<svg xmlns="http://www.w3.org/2000/svg" xmlns:xlink="http://www.w3.org/1999/xlink" width="500" zoomAndPan="magnify" viewBox="0 0 375 374.999991" height="500" preserveAspectRatio="xMidYMid meet" version="1.0"><defs><clipPath id="9f00f00517"><path d="M 14 28 L 331 28 L 331 286 L 14 286 Z M 14 28 " clip-rule="nonzero"/></clipPath><clipPath id="aa38771917"><path d="M -57.550781 170.648438 L 203.371094 -90.273438 L 457.929688 164.285156 L 197.007812 425.207031 Z M -57.550781 170.648438 " clip-rule="nonzero"/></clipPath><clipPath id="a14cc5a9ed"><path d="M -57.550781 170.648438 L 203.371094 -90.273438 L 457.929688 164.285156 L 197.007812 425.207031 Z M -57.550781 170.648438 " clip-rule="nonzero"/></clipPath><clipPath id="314ce20b92"><path d="M 82 37 L 338 37 L 338 354 L 82 354 Z M 82 37 " clip-rule="nonzero"/></clipPath><clipPath id="aaff48e844"><path d="M -57.550781 170.648438 L 203.371094 -90.273438 L 457.929688 164.285156 L 197.007812 425.207031 Z M -57.550781 170.648438 " clip-rule="nonzero"/></clipPath><clipPath id="6b90135c49"><path d="M -57.550781 170.648438 L 203.371094 -90.273438 L 457.929688 164.285156 L 197.007812 425.207031 Z M -57.550781 170.648438 " clip-rule="nonzero"/></clipPath></defs><rect x="-37.5" width="450" fill="#ffffff" y="-37.499999" height="449.999989" fill-opacity="1"/><rect x="-37.5" width="450" fill="#ffffff" y="-37.499999" height="449.999989" fill-opacity="1"/><rect x="-37.5" width="450" fill="#ffffff" y="-37.499999" height="449.999989" fill-opacity="1"/><g clip-path="url(#9f00f00517)"><g clip-path="url(#aa38771917)"><g clip-path="url(#a14cc5a9ed)"><path fill="#ff5757" d="M 330.300781 37.355469 C 319.996094 26.347656 301.011719 24.296875 282.679688 42.632812 L 216.558594 108.753906 C 212.707031 112.601562 208.296875 113.929688 203.464844 112.59375 L 48.011719 74.691406 C 42.828125 73.707031 38.417969 75.035156 34.917969 78.53125 L 15.886719 97.5625 C 14.484375 98.964844 13.925781 100.503906 14.277344 102.253906 C 14.628906 104.007812 15.613281 105.410156 17.363281 106.460938 L 144.757812 170.320312 C 146.859375 171.019531 147.980469 172.28125 148.121094 174.242188 C 148.265625 176.207031 147.636719 177.816406 146.234375 179.214844 L 94.945312 230.503906 C 91.097656 234.351562 86.6875 235.957031 81.785156 235.394531 L 59.367188 232.011719 C 51.035156 230.953125 23.246094 251.445312 35.019531 258.460938 L 76.574219 280.984375 C 78.746094 282.175781 80.640625 283.507812 82.324219 285.191406 L 82.464844 285.332031 Z M 330.300781 37.355469 " fill-opacity="1" fill-rule="evenodd"/></g></g></g><g clip-path="url(#314ce20b92)"><g clip-path="url(#aaff48e844)"><g clip-path="url(#6b90135c49)"><path fill="#ff5757" d="M 261.195312 350.289062 C 262.246094 352.042969 263.578125 353.09375 265.398438 353.375 C 267.152344 353.726562 268.691406 353.167969 270.089844 351.769531 L 289.121094 332.738281 C 292.621094 329.238281 293.949219 324.828125 292.960938 319.644531 L 255.0625 164.332031 C 253.726562 159.496094 255.054688 155.085938 258.902344 151.238281 L 325.023438 85.117188 C 341.957031 68.183594 340.535156 48.429688 330.300781 37.496094 L 82.464844 285.332031 C 84.214844 287.085938 85.617188 289.046875 86.882812 291.289062 L 109.402344 332.84375 C 116.347656 344.546875 136.914062 316.832031 135.855469 308.496094 L 132.472656 286.082031 C 131.835938 281.246094 133.441406 276.835938 137.363281 272.917969 L 188.648438 221.628906 C 190.398438 219.878906 192.148438 219.109375 193.902344 219.464844 C 195.652344 219.816406 196.84375 221.007812 197.546875 223.109375 Z M 261.195312 350.289062 " fill-opacity="1" fill-rule="evenodd"/></g></g></g></svg>